<svg width="453" height="297" viewBox="0 0 453 297" fill="none" xmlns="http://www.w3.org/2000/svg">
<path opacity="0.0654018" d="M60.6 -5.60001C79.1333 -5.60001 95.0667 0.266659 108.4 12L90.2 31C85.1333 27.4 80.5333 24.8 76.4 23.2C72.4 21.4667 67.8 20.6 62.6 20.6C52.6 20.6 44.7333 24.4667 39 32.2C33.4 39.9333 30.6 51.7333 30.6 67.6C30.6 79.2 31.5333 88.4 33.4 95.2C35.2667 101.867 38.0667 106.667 41.8 109.6C45.6667 112.533 50.6 114 56.6 114C62.6 114 68.0667 112.733 73 110.2V81.6H57.2L53.6 56.2H108.8V125.4C101.6 130.2 93.4667 133.933 84.4 136.6C75.3333 139.267 66.4 140.6 57.6 140.6C14.1333 140.6 -7.6 116.2 -7.6 67.4C-7.6 52.2 -4.66667 39.1333 1.2 28.2C7.2 17.1333 15.3333 8.73333 25.6 3C35.8667 -2.73334 47.5333 -5.60001 60.6 -5.60001ZM185.883 -5.60001C206.016 -5.60001 221.683 0.799989 232.883 13.6C244.083 26.4 249.683 44.3333 249.683 67.4C249.683 82.4667 247.149 95.5333 242.083 106.6C237.149 117.533 229.883 125.933 220.283 131.8C210.683 137.667 199.216 140.6 185.883 140.6C165.749 140.6 150.083 134.2 138.883 121.4C127.816 108.6 122.283 90.6 122.283 67.4C122.283 52.3333 124.749 39.3333 129.683 28.4C134.749 17.4667 142.016 9.06666 151.483 3.19999C161.083 -2.66668 172.549 -5.60001 185.883 -5.60001ZM185.883 21C177.216 21 170.816 24.6 166.683 31.8C162.683 39 160.683 50.8667 160.683 67.4C160.683 83.9333 162.749 95.8667 166.883 103.2C171.016 110.4 177.349 114 185.883 114C194.683 114 201.083 110.4 205.083 103.2C209.083 96 211.083 84.0667 211.083 67.4C211.083 50.8667 209.083 39 205.083 31.8C201.083 24.6 194.683 21 185.883 21ZM45.8 150.4C56.3333 150.4 65.6 151.933 73.6 155C81.7333 158.067 89 162.667 95.4 168.8L78.8 188.4C69.2 180.8 59.1333 177 48.6 177C43.1333 177 38.9333 178.067 36 180.2C33.2 182.2 31.8 185.067 31.8 188.8C31.8 191.467 32.5333 193.667 34 195.4C35.4667 197.133 37.9333 198.8 41.4 200.4C44.8667 202 50.3333 204 57.8 206.4C72.0667 210.933 82.4667 216.667 89 223.6C95.6667 230.4 99 239.867 99 252C99 260.8 96.7333 268.6 92.2 275.4C87.6667 282.067 81.0667 287.267 72.4 291C63.8667 294.733 53.8 296.6 42.2 296.6C20.0667 296.6 2 289.867 -12 276.4L6.2 256.2C17.2667 265.267 28.8 269.8 40.8 269.8C47.0667 269.8 51.9333 268.467 55.4 265.8C58.8667 263 60.6 259.333 60.6 254.8C60.6 251.6 59.9333 249 58.6 247C57.2667 244.867 54.8667 243 51.4 241.4C48.0667 239.667 43.1333 237.8 36.6 235.8C20.8667 230.867 9.8 224.933 3.4 218C-3 211.067 -6.2 202.333 -6.2 191.8C-6.2 183.533 -4 176.267 0.4 170C4.93333 163.733 11.1333 158.933 19 155.6C27 152.133 35.9333 150.4 45.8 150.4ZM223.816 246.4C223.816 256 221.682 264.6 217.416 272.2C213.282 279.8 207.016 285.8 198.616 290.2C190.216 294.467 179.949 296.6 167.816 296.6C149.416 296.6 135.482 292.133 126.016 283.2C116.549 274.133 111.816 261.867 111.816 246.4V154H148.816V245.2C148.816 253.6 150.282 259.8 153.216 263.8C156.282 267.667 161.149 269.6 167.816 269.6C174.482 269.6 179.282 267.6 182.216 263.6C185.149 259.6 186.616 253.467 186.616 245.2V154H223.816V246.4ZM290.508 241.8H280.308V293H243.308V154H291.508C311.108 154 325.708 157.533 335.308 164.6C345.041 171.667 349.908 182.533 349.908 197.2C349.908 206 347.841 213.333 343.708 219.2C339.708 225.067 333.241 230.333 324.308 235L358.908 293H317.708L290.508 241.8ZM280.308 216.6H292.708C305.508 216.6 311.908 210.133 311.908 197.2C311.908 191.2 310.108 186.8 306.508 184C303.041 181.2 297.774 179.8 290.708 179.8H280.308V216.6ZM367.331 293V154H452.731L448.931 180.2H404.331V213.6H443.531V239.8H404.331V293H367.331Z" fill="white"/>
</svg>
