<svg width="1000" height="488" viewBox="0 0 1000 488" fill="none" xmlns="http://www.w3.org/2000/svg">
<g opacity="0.29827">
<path d="M1008.08 155.448L443.182 -364.858V-755.19L28.1096 -778C24.9043 -770.456 4.36709 -748.714 7.57176 -736.596C11.43 -722.102 30.8387 -726.735 36.4776 -717.409C43.0661 -706.42 31.7291 -661.749 28.3457 -648.86C21.8759 -624.445 7.09676 -604.665 2.82235 -580.25C-4.35982 -539.263 10.1824 -542.53 37.7242 -516.927C84.141 -473.742 46.9244 -428.952 58.6176 -378.223C68.1146 -336.878 109.605 -315.554 124.8 -274.211C136.553 -242.37 152.697 -234.233 177.746 -210.947C177.153 -225.084 164.51 -266.785 188.253 -263.102C211.817 -259.478 202.736 -224.669 207.247 -210.115C211.045 -197.997 237.933 -173.761 215.616 -162.593C208.196 -158.91 187.066 -173.582 178.577 -177.503C184.572 -158.791 180.774 -139.367 190.271 -121.487C201.608 -100.162 213.835 -108.359 228.853 -96.7754C244.344 -84.8355 242.683 -71.1137 235.797 -53.0554C228.615 -34.2247 221.196 -37.1352 232.592 -14.4434C240.843 1.95119 254.85 22.7421 266.9 35.2164C273.904 42.4634 281.502 44.1267 288.506 53.3932C294.323 61.1155 292.067 71.2142 299.012 78.1638C310.883 90.1037 331.006 90.282 340.384 105.904C350.831 123.309 338.96 136.437 369.706 134.833C371.309 169.643 377.897 201.185 377.541 235.994C394.695 242.825 422.414 234.687 440.399 231.063C458.266 255.18 481.355 238.429 501.774 251.558C510.678 257.26 508.837 271.517 514.239 276.506C525.339 286.723 533.529 280.308 547.301 283.872C557.51 286.486 565.404 293.97 575.138 296.703C584.338 299.257 599.475 293.258 606.301 301.396C614.492 311.138 600.78 328.958 613.127 336.799C623.395 343.333 638.115 327.77 648.088 330.027C659.721 332.7 693.079 363.174 701.271 373.212C710.59 384.677 719.969 406.062 725.25 420.793C733.501 443.841 732.373 455.127 749.408 471.998C760.27 482.75 749.942 483.522 767.63 486.67C779.204 488.749 794.518 480.374 806.212 479.067C830.549 476.394 855.122 481.027 879.102 476.453C901.421 472.176 922.729 465.166 945.64 461.899C965.465 459.048 1000.37 461.246 1017.94 451.801C1036.99 441.643 1038.71 418.654 1011.17 422.932C1008.97 408.26 1018.77 388.003 1007.85 377.847C1023.04 357.056 1028.56 342.384 1030.93 316.959C1032 305.792 1032.48 293.436 1038 284.05C1043.4 274.783 1058.59 269.259 1061.56 261.299C1066.13 248.943 1058.83 243.419 1053.25 236.528C1049.69 232.073 1039.54 234.212 1036.63 230.291C1031.23 223.103 1036.57 215.678 1033.6 208.431C1024.94 187.462 1014.61 179.205 1008.08 155.444C1008.26 159.424 1008.44 163.463 1008.2 167.384" stroke="white" stroke-width="2" stroke-linecap="round" stroke-linejoin="round"/>
</g>
<path d="M729.114 75.9394C720.546 99.3208 740.614 107.526 756.675 122.807C761.434 127.336 761.888 134.817 756.879 139.342C746.107 149.074 705.264 134.917 707.854 147.745C710.53 160.994 745.061 179.531 746.618 180.799C760.284 191.932 764.735 220.174 757.208 235.658C751.852 246.676 716.342 242.962 705.172 239.293C632.024 215.266 664.985 218.131 582.817 210.67C576.527 210.099 569.935 209.806 563.894 211.65C557.671 213.549 557.869 221.339 559.957 225.55C566.876 239.506 597.849 263.178 589.514 281.523C586.956 287.152 580.963 290.707 578.264 296.27C576.151 300.627 576.385 305.772 575.445 310.523" stroke="white" stroke-width="2"/>
<path fill-rule="evenodd" clip-rule="evenodd" d="M573.5 318C577.09 318 580 315.09 580 311.5C580 307.91 577.09 305 573.5 305C569.91 305 567 307.91 567 311.5C567 315.09 569.91 318 573.5 318Z" fill="#4AF6CD"/>
<path fill-rule="evenodd" clip-rule="evenodd" d="M661 355C662.657 355 664 353.657 664 352C664 350.343 662.657 349 661 349C659.343 349 658 350.343 658 352C658 353.657 659.343 355 661 355Z" fill="#4AF6CD"/>
<path fill-rule="evenodd" clip-rule="evenodd" d="M725 463C726.657 463 728 461.657 728 460C728 458.343 726.657 457 725 457C723.343 457 722 458.343 722 460C722 461.657 723.343 463 725 463Z" fill="#4AF6CD"/>
<path fill-rule="evenodd" clip-rule="evenodd" d="M365 220C366.657 220 368 218.657 368 217C368 215.343 366.657 214 365 214C363.343 214 362 215.343 362 217C362 218.657 363.343 220 365 220Z" fill="#4AF6CD"/>
<path fill-rule="evenodd" clip-rule="evenodd" d="M729.5 83C733.09 83 736 80.0899 736 76.5C736 72.9101 733.09 70 729.5 70C725.91 70 723 72.9101 723 76.5C723 80.0899 725.91 83 729.5 83Z" fill="#4AF6CD"/>
<path d="M398.41 302.976L396.17 314H394.218L392.186 304.768L390.138 314H388.234L385.994 302.976H387.482L389.258 312.672L391.386 302.976H393.002L395.178 312.672L397.018 302.976H398.41ZM406.544 309.536C406.544 309.781 406.534 310.032 406.512 310.288H401.136C401.2 311.216 401.435 311.899 401.84 312.336C402.246 312.773 402.768 312.992 403.408 312.992C403.814 312.992 404.187 312.933 404.528 312.816C404.87 312.699 405.227 312.512 405.6 312.256L406.24 313.136C405.344 313.84 404.363 314.192 403.296 314.192C402.123 314.192 401.206 313.808 400.544 313.04C399.894 312.272 399.568 311.216 399.568 309.872C399.568 308.997 399.707 308.224 399.984 307.552C400.272 306.869 400.678 306.336 401.2 305.952C401.734 305.568 402.358 305.376 403.072 305.376C404.192 305.376 405.051 305.744 405.648 306.48C406.246 307.216 406.544 308.235 406.544 309.536ZM405.088 309.104C405.088 308.272 404.923 307.637 404.592 307.2C404.262 306.763 403.766 306.544 403.104 306.544C401.899 306.544 401.243 307.429 401.136 309.2H405.088V309.104ZM411.183 305.376C411.759 305.376 412.276 305.456 412.735 305.616C413.194 305.776 413.631 306.016 414.047 306.336L413.423 307.264C413.039 307.019 412.671 306.837 412.319 306.72C411.978 306.603 411.615 306.544 411.231 306.544C410.751 306.544 410.372 306.645 410.095 306.848C409.818 307.04 409.679 307.307 409.679 307.648C409.679 307.989 409.807 308.256 410.063 308.448C410.33 308.64 410.804 308.827 411.487 309.008C412.426 309.243 413.124 309.563 413.583 309.968C414.052 310.373 414.287 310.928 414.287 311.632C414.287 312.464 413.962 313.099 413.311 313.536C412.671 313.973 411.887 314.192 410.959 314.192C409.679 314.192 408.618 313.824 407.775 313.088L408.559 312.192C409.274 312.736 410.063 313.008 410.927 313.008C411.482 313.008 411.919 312.896 412.239 312.672C412.57 312.437 412.735 312.123 412.735 311.728C412.735 311.44 412.676 311.211 412.559 311.04C412.442 310.859 412.239 310.704 411.951 310.576C411.663 310.437 411.242 310.293 410.687 310.144C409.791 309.909 409.14 309.595 408.735 309.2C408.34 308.805 408.143 308.304 408.143 307.696C408.143 307.259 408.271 306.864 408.527 306.512C408.794 306.149 409.156 305.872 409.615 305.68C410.084 305.477 410.607 305.376 411.183 305.376ZM420.62 313.616C420.065 314 419.436 314.192 418.732 314.192C418.017 314.192 417.457 313.989 417.052 313.584C416.657 313.168 416.46 312.571 416.46 311.792V306.704H414.988V305.568H416.46V303.664L417.932 303.488V305.568H419.932L419.772 306.704H417.932V311.728C417.932 312.165 418.006 312.485 418.156 312.688C418.316 312.88 418.577 312.976 418.94 312.976C419.27 312.976 419.644 312.864 420.06 312.64L420.62 313.616ZM429.179 302.784C429.915 302.784 430.545 302.891 431.067 303.104C431.59 303.307 432.097 303.627 432.587 304.064L431.755 304.992C431.339 304.661 430.929 304.421 430.523 304.272C430.129 304.112 429.702 304.032 429.243 304.032C428.667 304.032 428.193 304.165 427.819 304.432C427.446 304.699 427.259 305.088 427.259 305.6C427.259 305.92 427.323 306.192 427.451 306.416C427.579 306.629 427.814 306.827 428.155 307.008C428.507 307.189 429.014 307.381 429.675 307.584C430.369 307.797 430.945 308.027 431.403 308.272C431.862 308.517 432.23 308.859 432.507 309.296C432.795 309.723 432.939 310.267 432.939 310.928C432.939 311.568 432.779 312.133 432.459 312.624C432.15 313.115 431.697 313.499 431.099 313.776C430.513 314.053 429.814 314.192 429.003 314.192C427.478 314.192 426.23 313.717 425.259 312.768L426.091 311.84C426.539 312.203 426.993 312.48 427.451 312.672C427.91 312.853 428.422 312.944 428.987 312.944C429.67 312.944 430.235 312.779 430.683 312.448C431.131 312.107 431.355 311.616 431.355 310.976C431.355 310.613 431.286 310.315 431.147 310.08C431.009 309.835 430.769 309.616 430.427 309.424C430.097 309.232 429.611 309.04 428.971 308.848C427.841 308.507 427.014 308.096 426.491 307.616C425.969 307.136 425.707 306.485 425.707 305.664C425.707 305.109 425.851 304.613 426.139 304.176C426.438 303.739 426.849 303.397 427.371 303.152C427.905 302.907 428.507 302.784 429.179 302.784ZM439.066 305.376C439.834 305.376 440.431 305.605 440.858 306.064C441.295 306.523 441.514 307.152 441.514 307.952V314H440.042V308.16C440.042 307.563 439.925 307.141 439.69 306.896C439.466 306.651 439.135 306.528 438.698 306.528C438.261 306.528 437.871 306.656 437.53 306.912C437.189 307.168 436.869 307.531 436.57 308V314H435.098V302.192L436.57 302.032V306.736C437.231 305.829 438.063 305.376 439.066 305.376ZM447.641 305.376C448.825 305.376 449.742 305.771 450.393 306.56C451.054 307.349 451.385 308.421 451.385 309.776C451.385 310.651 451.236 311.424 450.937 312.096C450.638 312.757 450.206 313.275 449.641 313.648C449.076 314.011 448.404 314.192 447.625 314.192C446.441 314.192 445.518 313.797 444.857 313.008C444.196 312.219 443.865 311.147 443.865 309.792C443.865 308.917 444.014 308.149 444.313 307.488C444.612 306.816 445.044 306.299 445.609 305.936C446.174 305.563 446.852 305.376 447.641 305.376ZM447.641 306.56C446.18 306.56 445.449 307.637 445.449 309.792C445.449 311.936 446.174 313.008 447.625 313.008C449.076 313.008 449.801 311.931 449.801 309.776C449.801 307.632 449.081 306.56 447.641 306.56ZM457.481 305.376C457.78 305.376 458.057 305.408 458.313 305.472L458.041 306.912C457.785 306.848 457.54 306.816 457.305 306.816C456.782 306.816 456.361 307.008 456.041 307.392C455.721 307.776 455.47 308.373 455.289 309.184V314H453.817V305.568H455.081L455.225 307.28C455.449 306.651 455.753 306.176 456.137 305.856C456.521 305.536 456.969 305.376 457.481 305.376ZM465.872 309.536C465.872 309.781 465.862 310.032 465.84 310.288H460.464C460.528 311.216 460.763 311.899 461.168 312.336C461.574 312.773 462.096 312.992 462.736 312.992C463.142 312.992 463.515 312.933 463.856 312.816C464.198 312.699 464.555 312.512 464.928 312.256L465.568 313.136C464.672 313.84 463.691 314.192 462.624 314.192C461.451 314.192 460.534 313.808 459.872 313.04C459.222 312.272 458.896 311.216 458.896 309.872C458.896 308.997 459.035 308.224 459.312 307.552C459.6 306.869 460.006 306.336 460.528 305.952C461.062 305.568 461.686 305.376 462.4 305.376C463.52 305.376 464.379 305.744 464.976 306.48C465.574 307.216 465.872 308.235 465.872 309.536ZM464.416 309.104C464.416 308.272 464.251 307.637 463.92 307.2C463.59 306.763 463.094 306.544 462.432 306.544C461.227 306.544 460.571 307.429 460.464 309.2H464.416V309.104ZM474.41 301.184V315.568H474.058V301.184H474.41ZM493.237 314H491.765L491.381 309.024C491.221 307.072 491.131 305.573 491.109 304.528L488.725 312.752H487.301L484.789 304.512C484.789 305.845 484.72 307.387 484.581 309.136L484.213 314H482.773L483.685 302.976H485.733L488.053 310.992L490.261 302.976H492.325L493.237 314ZM501.434 312.032C501.434 312.373 501.493 312.629 501.61 312.8C501.728 312.96 501.904 313.083 502.138 313.168L501.802 314.192C501.365 314.139 501.013 314.016 500.746 313.824C500.48 313.632 500.282 313.333 500.154 312.928C499.589 313.771 498.752 314.192 497.642 314.192C496.81 314.192 496.154 313.957 495.674 313.488C495.194 313.019 494.954 312.405 494.954 311.648C494.954 310.752 495.274 310.064 495.914 309.584C496.565 309.104 497.482 308.864 498.666 308.864H499.962V308.24C499.962 307.643 499.818 307.216 499.53 306.96C499.242 306.704 498.8 306.576 498.202 306.576C497.584 306.576 496.826 306.725 495.93 307.024L495.562 305.952C496.608 305.568 497.578 305.376 498.474 305.376C499.466 305.376 500.208 305.621 500.698 306.112C501.189 306.592 501.434 307.28 501.434 308.176V312.032ZM497.978 313.088C498.821 313.088 499.482 312.651 499.962 311.776V309.84H498.858C497.301 309.84 496.522 310.416 496.522 311.568C496.522 312.069 496.645 312.448 496.89 312.704C497.136 312.96 497.498 313.088 497.978 313.088ZM505.981 314.192C505.437 314.192 505.005 314.032 504.685 313.712C504.376 313.381 504.221 312.923 504.221 312.336V302.176L505.693 302V312.304C505.693 312.539 505.731 312.709 505.805 312.816C505.891 312.923 506.029 312.976 506.221 312.976C506.424 312.976 506.605 312.944 506.765 312.88L507.149 313.904C506.797 314.096 506.408 314.192 505.981 314.192ZM510.461 305.568V314H508.989V305.568H510.461ZM509.709 301.52C510.018 301.52 510.269 301.616 510.461 301.808C510.653 302 510.749 302.24 510.749 302.528C510.749 302.816 510.653 303.056 510.461 303.248C510.269 303.429 510.018 303.52 509.709 303.52C509.41 303.52 509.165 303.429 508.973 303.248C508.781 303.056 508.685 302.816 508.685 302.528C508.685 302.24 508.781 302 508.973 301.808C509.165 301.616 509.41 301.52 509.709 301.52ZM517.36 305.376C518.32 305.376 519.083 305.765 519.648 306.544C520.214 307.312 520.496 308.389 520.496 309.776C520.496 310.651 520.363 311.424 520.096 312.096C519.83 312.757 519.446 313.275 518.944 313.648C518.443 314.011 517.856 314.192 517.184 314.192C516.299 314.192 515.552 313.819 514.944 313.072L514.8 314H513.504V302.176L514.976 302V306.624C515.584 305.792 516.379 305.376 517.36 305.376ZM516.832 313.024C517.483 313.024 517.99 312.763 518.352 312.24C518.726 311.707 518.912 310.885 518.912 309.776C518.912 308.635 518.742 307.813 518.4 307.312C518.059 306.8 517.574 306.544 516.944 306.544C516.198 306.544 515.542 306.981 514.976 307.856V311.888C515.2 312.24 515.472 312.517 515.792 312.72C516.123 312.923 516.47 313.024 516.832 313.024ZM529.276 314H528.012L527.9 312.688C527.58 313.211 527.212 313.595 526.796 313.84C526.38 314.075 525.874 314.192 525.276 314.192C524.54 314.192 523.964 313.968 523.548 313.52C523.132 313.072 522.924 312.437 522.924 311.616V305.568H524.396V311.456C524.396 312.032 524.498 312.443 524.7 312.688C524.903 312.923 525.234 313.04 525.692 313.04C526.514 313.04 527.218 312.555 527.804 311.584V305.568H529.276V314ZM532.701 311.968C533.021 311.968 533.288 312.075 533.501 312.288C533.714 312.501 533.821 312.763 533.821 313.072C533.821 313.403 533.725 313.781 533.533 314.208L532.461 316.656H531.405L532.045 314C531.906 313.893 531.794 313.76 531.709 313.6C531.634 313.44 531.597 313.264 531.597 313.072C531.597 312.763 531.704 312.501 531.917 312.288C532.13 312.075 532.392 311.968 532.701 311.968ZM544.331 302.784C544.992 302.784 545.547 302.869 545.995 303.04C546.454 303.211 546.918 303.488 547.387 303.872L546.555 304.848C545.883 304.304 545.174 304.032 544.427 304.032C543.51 304.032 542.768 304.384 542.203 305.088C541.648 305.792 541.371 306.923 541.371 308.48C541.371 309.995 541.648 311.115 542.203 311.84C542.758 312.555 543.494 312.912 544.411 312.912C544.88 312.912 545.291 312.832 545.643 312.672C545.995 312.512 546.368 312.288 546.763 312L547.515 312.96C547.174 313.312 546.736 313.605 546.203 313.84C545.67 314.075 545.056 314.192 544.363 314.192C543.467 314.192 542.667 313.973 541.963 313.536C541.27 313.088 540.726 312.437 540.331 311.584C539.947 310.72 539.755 309.685 539.755 308.48C539.755 307.275 539.958 306.245 540.363 305.392C540.768 304.528 541.318 303.877 542.011 303.44C542.704 303.003 543.478 302.784 544.331 302.784ZM555.3 314L554.468 311.232H550.292L549.46 314H547.924L551.46 302.976H553.38L556.9 314H555.3ZM550.66 310H554.1L552.388 304.24L550.66 310Z" fill="white"/>
<path d="M598.378 67.784C599.039 67.784 599.594 67.8693 600.042 68.04C600.501 68.2107 600.965 68.488 601.434 68.872L600.602 69.848C599.93 69.304 599.221 69.032 598.474 69.032C597.557 69.032 596.815 69.384 596.25 70.088C595.695 70.792 595.418 71.9227 595.418 73.48C595.418 74.9947 595.695 76.1147 596.25 76.84C596.805 77.5547 597.541 77.912 598.458 77.912C598.927 77.912 599.338 77.832 599.69 77.672C600.042 77.512 600.415 77.288 600.81 77L601.562 77.96C601.221 78.312 600.783 78.6053 600.25 78.84C599.717 79.0747 599.103 79.192 598.41 79.192C597.514 79.192 596.714 78.9733 596.01 78.536C595.317 78.088 594.773 77.4373 594.378 76.584C593.994 75.72 593.802 74.6853 593.802 73.48C593.802 72.2747 594.005 71.2453 594.41 70.392C594.815 69.528 595.365 68.8773 596.058 68.44C596.751 68.0027 597.525 67.784 598.378 67.784ZM609.401 79H608.137L608.025 77.688C607.705 78.2107 607.337 78.5947 606.921 78.84C606.505 79.0747 605.999 79.192 605.401 79.192C604.665 79.192 604.089 78.968 603.673 78.52C603.257 78.072 603.049 77.4373 603.049 76.616V70.568H604.521V76.456C604.521 77.032 604.623 77.4427 604.825 77.688C605.028 77.9227 605.359 78.04 605.817 78.04C606.639 78.04 607.343 77.5547 607.929 76.584V70.568H609.401V79ZM616.106 70.376C616.405 70.376 616.682 70.408 616.938 70.472L616.666 71.912C616.41 71.848 616.165 71.816 615.93 71.816C615.407 71.816 614.986 72.008 614.666 72.392C614.346 72.776 614.095 73.3733 613.914 74.184V79H612.442V70.568H613.706L613.85 72.28C614.074 71.6507 614.378 71.176 614.762 70.856C615.146 70.536 615.594 70.376 616.106 70.376ZM622.278 70.376C622.576 70.376 622.854 70.408 623.11 70.472L622.838 71.912C622.582 71.848 622.336 71.816 622.102 71.816C621.579 71.816 621.158 72.008 620.838 72.392C620.518 72.776 620.267 73.3733 620.086 74.184V79H618.614V70.568H619.878L620.022 72.28C620.246 71.6507 620.55 71.176 620.934 70.856C621.318 70.536 621.766 70.376 622.278 70.376ZM630.669 74.536C630.669 74.7813 630.659 75.032 630.637 75.288H625.261C625.325 76.216 625.56 76.8987 625.965 77.336C626.371 77.7733 626.893 77.992 627.533 77.992C627.939 77.992 628.312 77.9333 628.653 77.816C628.995 77.6987 629.352 77.512 629.725 77.256L630.365 78.136C629.469 78.84 628.488 79.192 627.421 79.192C626.248 79.192 625.331 78.808 624.669 78.04C624.019 77.272 623.693 76.216 623.693 74.872C623.693 73.9973 623.832 73.224 624.109 72.552C624.397 71.8693 624.803 71.336 625.325 70.952C625.859 70.568 626.483 70.376 627.197 70.376C628.317 70.376 629.176 70.744 629.773 71.48C630.371 72.216 630.669 73.2347 630.669 74.536ZM629.213 74.104C629.213 73.272 629.048 72.6373 628.717 72.2C628.387 71.7627 627.891 71.544 627.229 71.544C626.024 71.544 625.368 72.4293 625.261 74.2H629.213V74.104ZM636.988 70.376C637.756 70.376 638.353 70.6053 638.78 71.064C639.217 71.5227 639.436 72.152 639.436 72.952V79H637.964V73.16C637.964 72.5627 637.852 72.1413 637.628 71.896C637.404 71.6507 637.073 71.528 636.636 71.528C636.188 71.528 635.793 71.656 635.452 71.912C635.111 72.168 634.791 72.536 634.492 73.016V79H633.02V70.568H634.284L634.412 71.816C634.711 71.368 635.079 71.016 635.516 70.76C635.964 70.504 636.455 70.376 636.988 70.376ZM646.651 78.616C646.096 79 645.467 79.192 644.763 79.192C644.048 79.192 643.488 78.9893 643.083 78.584C642.688 78.168 642.491 77.5707 642.491 76.792V71.704H641.019V70.568H642.491V68.664L643.963 68.488V70.568H645.963L645.803 71.704H643.963V76.728C643.963 77.1653 644.038 77.4853 644.187 77.688C644.347 77.88 644.608 77.976 644.971 77.976C645.302 77.976 645.675 77.864 646.091 77.64L646.651 78.616ZM654.011 67.976V77.672H658.539L658.363 79H652.491V67.976H654.011ZM663.141 70.376C664.325 70.376 665.242 70.7707 665.893 71.56C666.554 72.3493 666.885 73.4213 666.885 74.776C666.885 75.6507 666.736 76.424 666.437 77.096C666.138 77.7573 665.706 78.2747 665.141 78.648C664.576 79.0107 663.904 79.192 663.125 79.192C661.941 79.192 661.018 78.7973 660.357 78.008C659.696 77.2187 659.365 76.1467 659.365 74.792C659.365 73.9173 659.514 73.1493 659.813 72.488C660.112 71.816 660.544 71.2987 661.109 70.936C661.674 70.5627 662.352 70.376 663.141 70.376ZM663.141 71.56C661.68 71.56 660.949 72.6373 660.949 74.792C660.949 76.936 661.674 78.008 663.125 78.008C664.576 78.008 665.301 76.9307 665.301 74.776C665.301 72.632 664.581 71.56 663.141 71.56ZM672.389 70.376C672.89 70.376 673.349 70.4507 673.765 70.6C674.181 70.7387 674.581 70.968 674.965 71.288L674.261 72.216C673.962 72.0027 673.669 71.848 673.381 71.752C673.104 71.6453 672.794 71.592 672.453 71.592C671.77 71.592 671.237 71.864 670.853 72.408C670.48 72.952 670.293 73.7573 670.293 74.824C670.293 75.8907 670.48 76.68 670.853 77.192C671.226 77.6933 671.76 77.944 672.453 77.944C672.784 77.944 673.088 77.896 673.365 77.8C673.642 77.6933 673.952 77.528 674.293 77.304L674.965 78.264C674.197 78.8827 673.338 79.192 672.389 79.192C671.248 79.192 670.346 78.808 669.685 78.04C669.034 77.272 668.709 76.2107 668.709 74.856C668.709 73.96 668.858 73.176 669.157 72.504C669.456 71.832 669.877 71.3093 670.421 70.936C670.976 70.5627 671.632 70.376 672.389 70.376ZM682.481 77.032C682.481 77.3733 682.54 77.6293 682.657 77.8C682.775 77.96 682.951 78.0827 683.185 78.168L682.849 79.192C682.412 79.1387 682.06 79.016 681.793 78.824C681.527 78.632 681.329 78.3333 681.201 77.928C680.636 78.7707 679.799 79.192 678.689 79.192C677.857 79.192 677.201 78.9573 676.721 78.488C676.241 78.0187 676.001 77.4053 676.001 76.648C676.001 75.752 676.321 75.064 676.961 74.584C677.612 74.104 678.529 73.864 679.713 73.864H681.009V73.24C681.009 72.6427 680.865 72.216 680.577 71.96C680.289 71.704 679.847 71.576 679.249 71.576C678.631 71.576 677.873 71.7253 676.977 72.024L676.609 70.952C677.655 70.568 678.625 70.376 679.521 70.376C680.513 70.376 681.255 70.6213 681.745 71.112C682.236 71.592 682.481 72.28 682.481 73.176V77.032ZM679.025 78.088C679.868 78.088 680.529 77.6507 681.009 76.776V74.84H679.905C678.348 74.84 677.569 75.416 677.569 76.568C677.569 77.0693 677.692 77.448 677.937 77.704C678.183 77.96 678.545 78.088 679.025 78.088ZM689.76 78.616C689.206 79 688.576 79.192 687.872 79.192C687.158 79.192 686.598 78.9893 686.192 78.584C685.798 78.168 685.6 77.5707 685.6 76.792V71.704H684.128V70.568H685.6V68.664L687.072 68.488V70.568H689.072L688.912 71.704H687.072V76.728C687.072 77.1653 687.147 77.4853 687.296 77.688C687.456 77.88 687.718 77.976 688.08 77.976C688.411 77.976 688.784 77.864 689.2 77.64L689.76 78.616ZM692.758 70.568V79H691.286V70.568H692.758ZM692.006 66.52C692.315 66.52 692.566 66.616 692.758 66.808C692.95 67 693.046 67.24 693.046 67.528C693.046 67.816 692.95 68.056 692.758 68.248C692.566 68.4293 692.315 68.52 692.006 68.52C691.707 68.52 691.462 68.4293 691.27 68.248C691.078 68.056 690.982 67.816 690.982 67.528C690.982 67.24 691.078 67 691.27 66.808C691.462 66.616 691.707 66.52 692.006 66.52ZM698.969 70.376C700.153 70.376 701.071 70.7707 701.721 71.56C702.383 72.3493 702.713 73.4213 702.713 74.776C702.713 75.6507 702.564 76.424 702.265 77.096C701.967 77.7573 701.535 78.2747 700.969 78.648C700.404 79.0107 699.732 79.192 698.953 79.192C697.769 79.192 696.847 78.7973 696.185 78.008C695.524 77.2187 695.193 76.1467 695.193 74.792C695.193 73.9173 695.343 73.1493 695.641 72.488C695.94 71.816 696.372 71.2987 696.937 70.936C697.503 70.5627 698.18 70.376 698.969 70.376ZM698.969 71.56C697.508 71.56 696.777 72.6373 696.777 74.792C696.777 76.936 697.503 78.008 698.953 78.008C700.404 78.008 701.129 76.9307 701.129 74.776C701.129 72.632 700.409 71.56 698.969 71.56ZM709.113 70.376C709.881 70.376 710.478 70.6053 710.905 71.064C711.342 71.5227 711.561 72.152 711.561 72.952V79H710.089V73.16C710.089 72.5627 709.977 72.1413 709.753 71.896C709.529 71.6507 709.198 71.528 708.761 71.528C708.313 71.528 707.918 71.656 707.577 71.912C707.236 72.168 706.916 72.536 706.617 73.016V79H705.145V70.568H706.409L706.537 71.816C706.836 71.368 707.204 71.016 707.641 70.76C708.089 70.504 708.58 70.376 709.113 70.376Z" fill="white"/>
</svg>
