<svg width="454" height="297" viewBox="0 0 454 297" fill="none" xmlns="http://www.w3.org/2000/svg">
<path fill-rule="evenodd" clip-rule="evenodd" d="M1 -18H169V173H1V-18Z" fill="#4AF6CD"/>
<path opacity="0.0654018" d="M60.6 -5.60001C79.1333 -5.60001 95.0667 0.266659 108.4 12L90.2 31C85.1333 27.4 80.5333 24.8 76.4 23.2C72.4 21.4667 67.8 20.6 62.6 20.6C52.6 20.6 44.7333 24.4667 39 32.2C33.4 39.9333 30.6 51.7333 30.6 67.6C30.6 79.2 31.5333 88.4 33.4 95.2C35.2667 101.867 38.0667 106.667 41.8 109.6C45.6667 112.533 50.6 114 56.6 114C62.6 114 68.0667 112.733 73 110.2V81.6H57.2L53.6 56.2H108.8V125.4C101.6 130.2 93.4667 133.933 84.4 136.6C75.3333 139.267 66.4 140.6 57.6 140.6C14.1333 140.6 -7.6 116.2 -7.6 67.4C-7.6 52.2 -4.66667 39.1333 1.2 28.2C7.2 17.1333 15.3333 8.73333 25.6 3C35.8667 -2.73334 47.5333 -5.60001 60.6 -5.60001ZM185.883 -5.60001C206.016 -5.60001 221.683 0.799989 232.883 13.6C244.083 26.4 249.683 44.3333 249.683 67.4C249.683 82.4667 247.149 95.5333 242.083 106.6C237.149 117.533 229.883 125.933 220.283 131.8C210.683 137.667 199.216 140.6 185.883 140.6C165.749 140.6 150.083 134.2 138.883 121.4C127.816 108.6 122.283 90.6 122.283 67.4C122.283 52.3333 124.749 39.3333 129.683 28.4C134.749 17.4667 142.016 9.06666 151.483 3.19999C161.083 -2.66668 172.549 -5.60001 185.883 -5.60001ZM185.883 21C177.216 21 170.816 24.6 166.683 31.8C162.683 39 160.683 50.8667 160.683 67.4C160.683 83.9333 162.749 95.8667 166.883 103.2C171.016 110.4 177.349 114 185.883 114C194.683 114 201.083 110.4 205.083 103.2C209.083 96 211.083 84.0667 211.083 67.4C211.083 50.8667 209.083 39 205.083 31.8C201.083 24.6 194.683 21 185.883 21ZM45.8 150.4C56.3333 150.4 65.6 151.933 73.6 155C81.7333 158.067 89 162.667 95.4 168.8L78.8 188.4C69.2 180.8 59.1333 177 48.6 177C43.1333 177 38.9333 178.067 36 180.2C33.2 182.2 31.8 185.067 31.8 188.8C31.8 191.467 32.5333 193.667 34 195.4C35.4667 197.133 37.9333 198.8 41.4 200.4C44.8667 202 50.3333 204 57.8 206.4C72.0667 210.933 82.4667 216.667 89 223.6C95.6667 230.4 99 239.867 99 252C99 260.8 96.7333 268.6 92.2 275.4C87.6667 282.067 81.0667 287.267 72.4 291C63.8667 294.733 53.8 296.6 42.2 296.6C20.0667 296.6 2 289.867 -12 276.4L6.2 256.2C17.2667 265.267 28.8 269.8 40.8 269.8C47.0667 269.8 51.9333 268.467 55.4 265.8C58.8667 263 60.6 259.333 60.6 254.8C60.6 251.6 59.9333 249 58.6 247C57.2667 244.867 54.8667 243 51.4 241.4C48.0667 239.667 43.1333 237.8 36.6 235.8C20.8667 230.867 9.8 224.933 3.4 218C-3 211.067 -6.2 202.333 -6.2 191.8C-6.2 183.533 -4 176.267 0.4 170C4.93333 163.733 11.1333 158.933 19 155.6C27 152.133 35.9333 150.4 45.8 150.4ZM223.816 246.4C223.816 256 221.682 264.6 217.416 272.2C213.282 279.8 207.016 285.8 198.616 290.2C190.216 294.467 179.949 296.6 167.816 296.6C149.416 296.6 135.482 292.133 126.016 283.2C116.549 274.133 111.816 261.867 111.816 246.4V154H148.816V245.2C148.816 253.6 150.282 259.8 153.216 263.8C156.282 267.667 161.149 269.6 167.816 269.6C174.482 269.6 179.282 267.6 182.216 263.6C185.149 259.6 186.616 253.467 186.616 245.2V154H223.816V246.4ZM290.508 241.8H280.308V293H243.308V154H291.508C311.108 154 325.708 157.533 335.308 164.6C345.041 171.667 349.908 182.533 349.908 197.2C349.908 206 347.841 213.333 343.708 219.2C339.708 225.067 333.241 230.333 324.308 235L358.908 293H317.708L290.508 241.8ZM280.308 216.6H292.708C305.508 216.6 311.908 210.133 311.908 197.2C311.908 191.2 310.108 186.8 306.508 184C303.041 181.2 297.774 179.8 290.708 179.8H280.308V216.6ZM367.331 293V154H452.731L448.931 180.2H404.331V213.6H443.531V239.8H404.331V293H367.331Z" fill="white"/>
<path d="M61.22 137.36C61.22 134.2 61.68 131.42 62.6 129.02C63.52 126.58 64.9 124.4 66.74 122.48L72.62 127.46C70.34 130.34 69.2 133.36 69.2 136.52C69.2 138.16 69.52 139.42 70.16 140.3C70.76 141.14 71.62 141.56 72.74 141.56C73.54 141.56 74.2 141.34 74.72 140.9C75.24 140.46 75.74 139.72 76.22 138.68C76.7 137.64 77.3 136 78.02 133.76C79.38 129.48 81.1 126.36 83.18 124.4C85.22 122.4 88.06 121.4 91.7 121.4C94.34 121.4 96.68 122.08 98.72 123.44C100.72 124.8 102.28 126.78 103.4 129.38C104.52 131.94 105.08 134.96 105.08 138.44C105.08 145.08 103.06 150.5 99.02 154.7L92.96 149.24C95.68 145.92 97.04 142.46 97.04 138.86C97.04 136.98 96.64 135.52 95.84 134.48C95 133.44 93.9 132.92 92.54 132.92C91.58 132.92 90.8 133.12 90.2 133.52C89.56 133.92 89 134.64 88.52 135.68C88 136.68 87.44 138.16 86.84 140.12C85.36 144.84 83.58 148.16 81.5 150.08C79.42 152 76.8 152.96 73.64 152.96C71.16 152.96 68.98 152.3 67.1 150.98C65.22 149.62 63.78 147.76 62.78 145.4C61.74 143 61.22 140.32 61.22 137.36ZM90.02 83.9553C92.9 83.9553 95.48 84.5953 97.76 85.8753C100.04 87.1153 101.84 88.9953 103.16 91.5153C104.44 94.0353 105.08 97.1153 105.08 100.755C105.08 106.275 103.74 110.455 101.06 113.295C98.34 116.135 94.66 117.555 90.02 117.555H62.3V106.455H89.66C92.18 106.455 94.04 106.015 95.24 105.135C96.4 104.215 96.98 102.755 96.98 100.755C96.98 98.7553 96.38 97.3153 95.18 96.4353C93.98 95.5553 92.14 95.1153 89.66 95.1153H62.3V83.9553H90.02ZM88.64 63.9477V67.0077H104V78.1077H62.3V63.6477C62.3 57.7677 63.36 53.3877 65.48 50.5077C67.6 47.5877 70.86 46.1277 75.26 46.1277C77.9 46.1277 80.1 46.7477 81.86 47.9877C83.62 49.1877 85.2 51.1277 86.6 53.8077L104 43.4277V55.7877L88.64 63.9477ZM81.08 67.0077V63.2877C81.08 59.4477 79.14 57.5277 75.26 57.5277C73.46 57.5277 72.14 58.0677 71.3 59.1477C70.46 60.1877 70.04 61.7677 70.04 63.8877V67.0077H81.08ZM104 40.9006H62.3V15.2806L70.16 16.4206V29.8006H80.18V18.0406H88.04V29.8006H104V40.9006Z" fill="white"/>
<path d="M61.22 249.92C61.22 244.36 62.98 239.58 66.5 235.58L72.2 241.04C71.12 242.56 70.34 243.94 69.86 245.18C69.34 246.38 69.08 247.76 69.08 249.32C69.08 252.32 70.24 254.68 72.56 256.4C74.88 258.08 78.42 258.92 83.18 258.92C86.66 258.92 89.42 258.64 91.46 258.08C93.46 257.52 94.9 256.68 95.78 255.56C96.66 254.4 97.1 252.92 97.1 251.12C97.1 249.32 96.72 247.68 95.96 246.2H87.38V250.94L79.76 252.02V235.46H100.52C101.96 237.62 103.08 240.06 103.88 242.78C104.68 245.5 105.08 248.18 105.08 250.82C105.08 263.86 97.76 270.38 83.12 270.38C78.56 270.38 74.64 269.5 71.36 267.74C68.04 265.94 65.52 263.5 63.8 260.42C62.08 257.34 61.22 253.84 61.22 249.92ZM61.22 212.335C61.22 206.295 63.14 201.595 66.98 198.235C70.82 194.875 76.2 193.195 83.12 193.195C87.64 193.195 91.56 193.955 94.88 195.475C98.16 196.955 100.68 199.135 102.44 202.015C104.2 204.895 105.08 208.335 105.08 212.335C105.08 218.375 103.16 223.075 99.32 226.435C95.48 229.755 90.08 231.415 83.12 231.415C78.6 231.415 74.7 230.675 71.42 229.195C68.14 227.675 65.62 225.495 63.86 222.655C62.1 219.775 61.22 216.335 61.22 212.335ZM69.2 212.335C69.2 214.935 70.28 216.855 72.44 218.095C74.6 219.295 78.16 219.895 83.12 219.895C88.08 219.895 91.66 219.275 93.86 218.035C96.02 216.795 97.1 214.895 97.1 212.335C97.1 209.695 96.02 207.775 93.86 206.575C91.7 205.375 88.12 204.775 83.12 204.775C78.16 204.775 74.6 205.375 72.44 206.575C70.28 207.775 69.2 209.695 69.2 212.335Z" fill="white"/>
<rect x="84" y="183" width="20" height="1" transform="rotate(-90 84 183)" fill="white"/>
</svg>
