<?xml version="1.0" standalone="no"?>
<!DOCTYPE svg PUBLIC "-//W3C//DTD SVG 20010904//EN"
 "http://www.w3.org/TR/2001/REC-SVG-20010904/DTD/svg10.dtd">
<svg version="1.0" xmlns="http://www.w3.org/2000/svg"
 width="1110.000000pt" height="1280.000000pt" viewBox="0 0 1110.000000 1280.000000"
 preserveAspectRatio="xMidYMid meet">
<metadata>
Created by potrace 1.15, written by Peter Selinger 2001-2017
</metadata>
<g transform="translate(0.000000,1280.000000) scale(0.100000,-0.100000)"
fill="#000000" stroke="none">
<path d="M5200 12785 c-99 -21 -191 -61 -268 -115 -184 -129 -265 -315 -226
-520 8 -47 19 -107 24 -133 6 -32 4 -79 -6 -144 -29 -196 -15 -309 61 -481 38
-87 44 -135 20 -169 -8 -12 -50 -48 -93 -80 -42 -32 -104 -79 -137 -104 -33
-25 -101 -67 -151 -93 -52 -26 -128 -78 -177 -119 -271 -229 -285 -244 -367
-382 -14 -22 -73 -105 -132 -184 -146 -197 -198 -310 -198 -432 0 -25 -11
-107 -25 -180 -14 -74 -28 -167 -32 -206 -3 -40 -11 -77 -17 -82 -6 -5 -65
-17 -131 -26 -183 -25 -950 -198 -1225 -276 -540 -154 -961 -351 -1308 -612
-341 -256 -528 -465 -675 -756 -131 -260 -169 -484 -105 -622 79 -171 366
-477 643 -685 573 -431 1391 -754 2129 -839 72 -9 141 -18 153 -20 40 -9 37
-39 -18 -163 -73 -164 -78 -238 -20 -304 16 -18 36 -59 45 -90 61 -213 279
-246 457 -68 69 68 103 133 133 253 13 51 38 122 55 159 17 37 31 75 31 83 0
9 11 27 25 40 23 24 30 25 152 25 71 0 202 9 293 21 228 29 320 20 372 -38 25
-28 82 -155 113 -253 34 -108 35 -174 7 -275 -28 -100 -41 -204 -42 -320 0
-80 -15 -199 -65 -529 -46 -297 -171 -477 -603 -864 -244 -218 -349 -346 -522
-635 -58 -96 -143 -213 -289 -395 -409 -509 -554 -670 -666 -735 -92 -53 -129
-80 -193 -141 -166 -158 -121 -305 163 -528 126 -100 244 -215 302 -296 26
-35 79 -130 120 -210 41 -81 86 -159 100 -174 66 -69 187 -91 485 -86 203 3
207 3 232 27 30 28 34 75 10 109 -28 41 -72 54 -218 66 -155 14 -190 25 -222
74 -23 34 -23 35 -43 292 -6 74 -17 188 -26 254 -25 180 -15 225 84 374 202
306 381 489 789 810 133 104 266 219 330 284 59 60 197 185 307 278 201 169
334 296 400 381 46 59 79 75 111 54 31 -20 31 -66 2 -232 -21 -121 -21 -126
-4 -267 27 -234 75 -453 260 -1184 42 -165 74 -319 86 -410 11 -80 30 -184 42
-231 32 -125 30 -281 -6 -414 -14 -53 -26 -105 -26 -116 0 -30 32 -50 109 -66
103 -21 728 -22 851 0 47 8 99 15 117 15 59 0 81 56 48 120 -17 33 -83 89
-140 118 -114 58 -290 207 -345 291 -28 44 -31 58 -34 142 -3 78 -11 115 -45
216 -54 159 -66 277 -51 490 6 84 15 185 20 225 5 40 10 141 10 223 1 83 6
191 11 240 23 229 23 251 -10 422 -57 305 -60 420 -12 610 11 43 27 137 36
208 8 72 27 176 40 231 57 241 54 407 -17 819 -32 185 -41 266 -41 355 -1 108
2 123 42 250 30 96 44 159 48 220 4 61 13 100 30 138 15 31 31 93 38 145 10
71 17 94 33 108 34 27 254 63 452 75 236 13 457 63 1000 227 173 53 475 141
670 197 647 186 946 293 1265 454 291 148 481 277 830 561 394 322 545 513
611 773 63 248 32 469 -93 671 -58 93 -218 256 -328 333 -459 321 -1273 550
-2280 643 -347 31 -473 36 -1025 41 -341 3 -578 9 -598 16 -18 5 -39 20 -47
31 -23 36 -53 171 -85 386 -44 286 -61 335 -195 559 -101 170 -193 259 -308
298 -64 22 -74 36 -57 82 7 20 21 74 31 118 10 45 29 104 42 131 40 78 78 213
84 293 4 57 0 103 -17 183 -20 97 -22 116 -11 195 17 132 14 218 -10 282 -11
30 -24 75 -29 100 -13 68 -15 71 -103 152 -211 192 -332 268 -460 288 -38 6
-94 17 -125 25 -69 18 -165 18 -252 0z"/>
</g>
</svg>
